<?xml version="1.0" encoding="UTF-8" standalone="no"?>
<!-- Created with Inkscape (http://www.inkscape.org/) -->

<svg
   width="771.89514"
   height="580.26331"
   viewBox="0 0 771.89514 580.26331"
   version="1.1"
   id="SVGRoot"
   sodipodi:docname="discord_toolbox.svg"
   xml:space="preserve"
   inkscape:version="1.2.1 (9c6d41e410, 2022-07-14, custom)"
   inkscape:export-filename="discord_toolbox.png"
   inkscape:export-xdpi="96"
   inkscape:export-ydpi="96"
   xmlns:inkscape="http://www.inkscape.org/namespaces/inkscape"
   xmlns:sodipodi="http://sodipodi.sourceforge.net/DTD/sodipodi-0.dtd"
   xmlns="http://www.w3.org/2000/svg"
   xmlns:svg="http://www.w3.org/2000/svg"><sodipodi:namedview
     id="namedview385"
     pagecolor="#ffffff"
     bordercolor="#000000"
     borderopacity="0.25"
     inkscape:showpageshadow="2"
     inkscape:pageopacity="0.0"
     inkscape:pagecheckerboard="0"
     inkscape:deskcolor="#d1d1d1"
     inkscape:document-units="px"
     showgrid="true"
     inkscape:zoom="0.70710678"
     inkscape:cx="573.4636"
     inkscape:cy="485.07525"
     inkscape:window-width="1920"
     inkscape:window-height="1050"
     inkscape:window-x="0"
     inkscape:window-y="30"
     inkscape:window-maximized="1"
     inkscape:current-layer="layer1"
     showguides="true"><sodipodi:guide
       position="372.76665,1.499992"
       orientation="0,-1"
       id="guide882"
       inkscape:locked="false" /><sodipodi:guide
       position="372.76665,485.75499"
       orientation="0,-1"
       id="guide884"
       inkscape:locked="false" /><sodipodi:guide
       position="-13.180936,168.98668"
       orientation="1,0"
       id="guide886"
       inkscape:locked="false" /><sodipodi:guide
       position="372.76665,139.95402"
       orientation="1,0"
       id="guide888"
       inkscape:locked="false" /><sodipodi:guide
       position="258.84826,580.2633"
       orientation="0,-1"
       id="guide1285"
       inkscape:locked="false" /><sodipodi:guide
       position="197.05819,412.91518"
       orientation="1,0"
       id="guide1287"
       inkscape:locked="false" /></sodipodi:namedview><defs
     id="defs380"><inkscape:path-effect
       center_point="498.81906,262.23212"
       end_point="498.81906,309.48628"
       start_point="498.81906,214.97797"
       effect="mirror_symmetry"
       id="path-effect1291"
       is_visible="true"
       lpeversion="1.2"
       lpesatellites=""
       mode="free"
       discard_orig_path="false"
       fuse_paths="false"
       oposite_fuse="false"
       split_items="false"
       split_open="false"
       link_styles="false" /><inkscape:path-effect
       effect="mirror_symmetry"
       start_point="498.81906,309.48629"
       end_point="498.81906,795.24127"
       center_point="498.81906,552.36378"
       id="path-effect1230"
       is_visible="true"
       lpeversion="1.2"
       lpesatellites=""
       mode="free"
       discard_orig_path="false"
       fuse_paths="false"
       oposite_fuse="false"
       split_items="false"
       split_open="false"
       link_styles="false" /><style
       id="style1232">.cls-1{fill:#fff;}</style></defs><g
     inkscape:label="Layer 1"
     inkscape:groupmode="layer"
     id="layer1"
     transform="translate(-126.05241,-214.97797)"><circle
       id="path1004"
       style="fill:#000000;stroke:none"
       cx="512"
       cy="309.48627"
       r="1.5" /><circle
       id="path1008"
       style="fill:#000000;stroke:none"
       cx="512"
       cy="309.48627"
       r="1.5" /><circle
       id="path1010"
       style="fill:#000000;stroke:none"
       cx="512"
       cy="310.98627"
       r="1.5" /><circle
       id="path1012"
       style="fill:#000000;stroke:none"
       cx="512"
       cy="793.74127"
       r="1.5" /><path
       style="fill:#5865f2"
       d="M 498.81906,795.24127 H 172.6256 c 0,0 -59.75413,-8.12956 -59.75413,-59.75412 V 357.34314 c 0,0 1.59826,-47.85686 47.85686,-47.85686 h 338.09073 z m 0,0 h 326.19346 c 0,0 59.75413,-8.12956 59.75413,-59.75412 V 357.34314 c 0,0 -1.59826,-47.85686 -47.85686,-47.85686 H 498.81906 Z"
       id="path1228"
       inkscape:path-effect="#path-effect1230"
       inkscape:original-d="M 498.81906,795.24127 H 172.6256 c 0,0 -59.75413,-8.12956 -59.75413,-59.75412 V 357.34314 c 0,0 1.59826,-47.85686 47.85686,-47.85686 h 338.09073 z"
       class="UnoptimicedTransforms"
       sodipodi:nodetypes="ccscscc"
       transform="translate(13.18094)" /><path
       class="cls-1"
       d="m 634.64885,440.887 a 292.24092,292.24092 0 0 0 -72.90043,-22.42876 200.27466,200.27466 0 0 0 -9.33837,18.98245 271.47973,271.47973 0 0 0 -80.90473,0 201.13624,201.13624 0 0 0 -9.33837,-18.98246 294.29759,294.29759 0 0 0 -72.95601,22.48435 C 343.07495,509.20159 330.56821,575.76529 336.82158,641.384 v 0 a 293.8529,293.8529 0 0 0 89.40932,44.88531 215.94978,215.94978 0 0 0 19.14922,-30.87775 190.1581,190.1581 0 0 1 -30.15515,-14.39665 c 2.52914,-1.83434 5.0027,-3.72424 7.39287,-5.55857 a 210.02992,210.02992 0 0 0 178.76307,0 c 2.41797,1.97329 4.89152,3.8632 7.39287,5.55856 a 190.88071,190.88071 0 0 1 -30.21073,14.42444 214.00429,214.00429 0 0 0 19.14921,30.84997 292.51885,292.51885 0 0 0 89.46491,-44.85752 v 0 C 694.51446,565.3152 674.64263,499.36297 634.64885,440.887 Z M 453.30106,601.0289 c -17.42607,0 -31.82272,-15.81407 -31.82272,-35.26901 0,-19.45493 13.89638,-35.40798 31.76713,-35.40798 17.87075,0 32.15623,15.95305 31.85051,35.40798 -0.30572,19.45494 -14.03535,35.26901 -31.79492,35.26901 z m 117.39663,0 c -17.45385,0 -31.79492,-15.81407 -31.79492,-35.26901 0,-19.45493 13.89638,-35.40798 31.79492,-35.40798 17.89854,0 32.07285,15.95305 31.76713,35.40798 -0.30572,19.45494 -14.00755,35.26901 -31.76713,35.26901 z"
       id="path1236"
       style="stroke-width:2.77928" /><path
       style="fill:#5865f2"
       d="m 323.1106,309.48628 v -68.37396 c 0,0 1.48387,-26.13435 28.03712,-26.13435 h 147.67134 v 36.59546 H 352.94784 v 57.91285 z m 351.41692,0 v -68.37396 c 0,0 -1.48387,-26.13435 -28.03712,-26.13435 H 498.81906 v 36.59546 h 145.87122 v 57.91285 z"
       id="path1289"
       class="UnoptimicedTransforms"
       inkscape:path-effect="#path-effect1291"
       inkscape:original-d="m 323.1106,309.48628 v -68.37396 c 0,0 1.48387,-26.13435 28.03712,-26.13435 26.55326,0 147.67134,0 147.67134,0 v 36.59546 H 352.94784 v 57.91285 z"
       transform="translate(13.18094)" /></g></svg>
